<?xml version="1.0" encoding="utf-8"?>
<!-- Svg Vector Icons : http://www.onlinewebfonts.com/icon -->
<!DOCTYPE svg PUBLIC "-//W3C//DTD SVG 1.1//EN" "http://www.w3.org/Graphics/SVG/1.1/DTD/svg11.dtd">
<svg version="1.1" xmlns="http://www.w3.org/2000/svg" xmlns:xlink="http://www.w3.org/1999/xlink" x="0px" y="0px" viewBox="0 0 1000 1000" enable-background="new 0 0 1000 1000" xml:space="preserve">
<metadata> Svg Vector Icons : http://www.onlinewebfonts.com/icon </metadata>
<g><g transform="translate(0.000000,511.000000) scale(0.100000,-0.100000)"><path d="M1237.3,3410.9c-557.1-92.9-982.6-606.1-982.6-1181.2c0-477.1,255.3-882,683.4-1085.7c742.7-355.9,1617,149.6,1707.3,985.2c61.9,595.7-410.1,1188.9-1023.8,1284.3C1433.3,3441.8,1430.7,3441.8,1237.3,3410.9z"/><path d="M8352.6,3410.9c-77.4-12.9-226.9-64.5-330.1-116.1c-325-159.9-541.6-430.7-637-796.9C7181.8,1701,7893.6,924.8,8721.4,1040.8c590.6,85.1,1023.8,588,1023.8,1186.3C9745.3,2969.9,9082.5,3532.1,8352.6,3410.9z"/><path d="M1190.9,806.2c-417.8-69.6-760.8-319.8-946.5-686C102.6-163.5,100-189.3,100-1762.5v-1451.9l1348.8,5.2l1346.2,7.7l12.9,985.2l12.9,985.2l193.4-121.2l193.4-121.2h709.2c389.4,0,750.5,7.7,802.1,20.6c54.2,10.3,136.7,49,188.3,82.5l92.8,61.9l92.8-61.9c51.6-33.5,134.1-72.2,188.3-82.5c51.6-12.9,412.6-20.6,802.1-20.6h709.2l193.4,121.2l193.4,121.2l12.9-985.2l12.9-985.2l1346.2-7.7l1348.8-5.2v1451.9c0,1204.4-7.7,1477.8-38.7,1598.9C9722,372.9,9327.5,723.6,8767.8,811.3c-340.4,51.6-758.2-54.2-1021.3-257.9c-69.6-54.2-366.2-268.2-657.6-469.4l-528.7-371.4l-644.7-12.9c-629.3-12.9-647.3-15.5-781.4-79.9L5000-447.2l-134.1,67.1c-134.1,64.5-152.2,67-781.4,79.9l-644.7,12.9l-425.5,294c-234.7,162.5-531.3,376.5-660.2,472c-268.2,201.2-471.9,294-724.7,330.1C1428.2,837.1,1376.6,837.1,1190.9,806.2z"/></g></g>
</svg>