<svg xmlns="http://www.w3.org/2000/svg" xmlns:xlink="http://www.w3.org/1999/xlink" version="1.1" class="marks" width="451" height="347" viewBox="0 0 451 347"><rect width="451" height="347" fill="white"/><g fill="none" stroke-miterlimit="10" transform="translate(42,10)"><g class="mark-group role-frame root" role="graphics-object" aria-roledescription="group mark container"><g transform="translate(0,0)"><path class="background" aria-hidden="true" d="M0.5,0.5h400v300h-400Z" stroke="#ddd"/><g><g class="mark-group role-axis" aria-hidden="true"><g transform="translate(0.5,300.5)"><path class="background" aria-hidden="true" d="M0,0h0v0h0Z" pointer-events="none"/><g><g class="mark-rule role-axis-grid" pointer-events="none"><line transform="translate(62,-300)" x2="0" y2="300" stroke="#ddd" stroke-width="1" opacity="1"/><line transform="translate(132,-300)" x2="0" y2="300" stroke="#ddd" stroke-width="1" opacity="1"/><line transform="translate(201,-300)" x2="0" y2="300" stroke="#ddd" stroke-width="1" opacity="1"/><line transform="translate(270,-300)" x2="0" y2="300" stroke="#ddd" stroke-width="1" opacity="1"/><line transform="translate(339,-300)" x2="0" y2="300" stroke="#ddd" stroke-width="1" opacity="1"/></g></g><path class="foreground" aria-hidden="true" d="" pointer-events="none" display="none"/></g></g><g class="mark-group role-axis" aria-hidden="true"><g transform="translate(0.5,0.5)"><path class="background" aria-hidden="true" d="M0,0h0v0h0Z" pointer-events="none"/><g><g class="mark-rule role-axis-grid" pointer-events="none"><line transform="translate(0,300)" x2="400" y2="0" stroke="#ddd" stroke-width="1" opacity="1"/><line transform="translate(0,273)" x2="400" y2="0" stroke="#ddd" stroke-width="1" opacity="1"/><line transform="translate(0,245)" x2="400" y2="0" stroke="#ddd" stroke-width="1" opacity="1"/><line transform="translate(0,218)" x2="400" y2="0" stroke="#ddd" stroke-width="1" opacity="1"/><line transform="translate(0,191)" x2="400" y2="0" stroke="#ddd" stroke-width="1" opacity="1"/><line transform="translate(0,164)" x2="400" y2="0" stroke="#ddd" stroke-width="1" opacity="1"/><line transform="translate(0,136)" x2="400" y2="0" stroke="#ddd" stroke-width="1" opacity="1"/><line transform="translate(0,109)" x2="400" y2="0" stroke="#ddd" stroke-width="1" opacity="1"/><line transform="translate(0,82)" x2="400" y2="0" stroke="#ddd" stroke-width="1" opacity="1"/><line transform="translate(0,55)" x2="400" y2="0" stroke="#ddd" stroke-width="1" opacity="1"/><line transform="translate(0,27)" x2="400" y2="0" stroke="#ddd" stroke-width="1" opacity="1"/><line transform="translate(0,0)" x2="400" y2="0" stroke="#ddd" stroke-width="1" opacity="1"/></g></g><path class="foreground" aria-hidden="true" d="" pointer-events="none" display="none"/></g></g><g class="mark-group role-axis" role="graphics-symbol" aria-roledescription="axis" aria-label="X-axis titled 'date' for a time scale with values from Sunday, 29 November 2020, 9:17:42 PM to Monday, 30 November 2020, 2:37:48 PM"><g transform="translate(0.5,300.5)"><path class="background" aria-hidden="true" d="M0,0h0v0h0Z" pointer-events="none"/><g><g class="mark-rule role-axis-tick" pointer-events="none"><line transform="translate(62,0)" x2="0" y2="5" stroke="#888" stroke-width="1" opacity="1"/><line transform="translate(132,0)" x2="0" y2="5" stroke="#888" stroke-width="1" opacity="1"/><line transform="translate(201,0)" x2="0" y2="5" stroke="#888" stroke-width="1" opacity="1"/><line transform="translate(270,0)" x2="0" y2="5" stroke="#888" stroke-width="1" opacity="1"/><line transform="translate(339,0)" x2="0" y2="5" stroke="#888" stroke-width="1" opacity="1"/></g><g class="mark-text role-axis-label" pointer-events="none"><text text-anchor="middle" transform="translate(62.41707528122296,15)" font-family="sans-serif" font-size="10px" fill="#000" opacity="1">Mon 30</text><text text-anchor="middle" transform="translate(131.6411883472743,15)" font-family="sans-serif" font-size="10px" fill="#000" opacity="1">03 AM</text><text text-anchor="middle" transform="translate(200.86530141332565,15)" font-family="sans-serif" font-size="10px" fill="#000" opacity="1">06 AM</text><text text-anchor="middle" transform="translate(270.08941447937696,15)" font-family="sans-serif" font-size="10px" fill="#000" opacity="1">09 AM</text><text text-anchor="middle" transform="translate(339.3135275454283,15)" font-family="sans-serif" font-size="10px" fill="#000" opacity="1">12 PM</text></g><g class="mark-rule role-axis-domain" pointer-events="none"><line transform="translate(0,0)" x2="400" y2="0" stroke="#888" stroke-width="1" opacity="1"/></g><g class="mark-text role-axis-title" pointer-events="none"><text text-anchor="middle" transform="translate(200,30)" font-family="sans-serif" font-size="11px" font-weight="bold" fill="#000" opacity="1">date</text></g></g><path class="foreground" aria-hidden="true" d="" pointer-events="none" display="none"/></g></g><g class="mark-group role-axis" role="graphics-symbol" aria-roledescription="axis" aria-label="Y-axis titled 'screenTime' for a linear scale with values from 1.4 to 3.6"><g transform="translate(0.5,0.5)"><path class="background" aria-hidden="true" d="M0,0h0v0h0Z" pointer-events="none"/><g><g class="mark-rule role-axis-tick" pointer-events="none"><line transform="translate(0,300)" x2="-5" y2="0" stroke="#888" stroke-width="1" opacity="1"/><line transform="translate(0,273)" x2="-5" y2="0" stroke="#888" stroke-width="1" opacity="1"/><line transform="translate(0,245)" x2="-5" y2="0" stroke="#888" stroke-width="1" opacity="1"/><line transform="translate(0,218)" x2="-5" y2="0" stroke="#888" stroke-width="1" opacity="1"/><line transform="translate(0,191)" x2="-5" y2="0" stroke="#888" stroke-width="1" opacity="1"/><line transform="translate(0,164)" x2="-5" y2="0" stroke="#888" stroke-width="1" opacity="1"/><line transform="translate(0,136)" x2="-5" y2="0" stroke="#888" stroke-width="1" opacity="1"/><line transform="translate(0,109)" x2="-5" y2="0" stroke="#888" stroke-width="1" opacity="1"/><line transform="translate(0,82)" x2="-5" y2="0" stroke="#888" stroke-width="1" opacity="1"/><line transform="translate(0,55)" x2="-5" y2="0" stroke="#888" stroke-width="1" opacity="1"/><line transform="translate(0,27)" x2="-5" y2="0" stroke="#888" stroke-width="1" opacity="1"/><line transform="translate(0,0)" x2="-5" y2="0" stroke="#888" stroke-width="1" opacity="1"/></g><g class="mark-text role-axis-label" pointer-events="none"><text text-anchor="end" transform="translate(-7,303)" font-family="sans-serif" font-size="10px" fill="#000" opacity="1">1.4</text><text text-anchor="end" transform="translate(-7,275.7272727272727)" font-family="sans-serif" font-size="10px" fill="#000" opacity="1">1.6</text><text text-anchor="end" transform="translate(-7,248.45454545454544)" font-family="sans-serif" font-size="10px" fill="#000" opacity="1">1.8</text><text text-anchor="end" transform="translate(-7,221.1818181818182)" font-family="sans-serif" font-size="10px" fill="#000" opacity="1">2.0</text><text text-anchor="end" transform="translate(-7,193.90909090909088)" font-family="sans-serif" font-size="10px" fill="#000" opacity="1">2.2</text><text text-anchor="end" transform="translate(-7,166.63636363636363)" font-family="sans-serif" font-size="10px" fill="#000" opacity="1">2.4</text><text text-anchor="end" transform="translate(-7,139.36363636363635)" font-family="sans-serif" font-size="10px" fill="#000" opacity="1">2.6</text><text text-anchor="end" transform="translate(-7,112.09090909090912)" font-family="sans-serif" font-size="10px" fill="#000" opacity="1">2.8</text><text text-anchor="end" transform="translate(-7,84.81818181818181)" font-family="sans-serif" font-size="10px" fill="#000" opacity="1">3.0</text><text text-anchor="end" transform="translate(-7,57.54545454545453)" font-family="sans-serif" font-size="10px" fill="#000" opacity="1">3.2</text><text text-anchor="end" transform="translate(-7,30.27272727272728)" font-family="sans-serif" font-size="10px" fill="#000" opacity="1">3.4</text><text text-anchor="end" transform="translate(-7,3)" font-family="sans-serif" font-size="10px" fill="#000" opacity="1">3.6</text></g><g class="mark-rule role-axis-domain" pointer-events="none"><line transform="translate(0,300)" x2="0" y2="-300" stroke="#888" stroke-width="1" opacity="1"/></g><g class="mark-text role-axis-title" pointer-events="none"><text text-anchor="middle" transform="translate(-26,150) rotate(-90) translate(0,-2)" font-family="sans-serif" font-size="11px" font-weight="bold" fill="#000" opacity="1">screenTime</text></g></g><path class="foreground" aria-hidden="true" d="" pointer-events="none" display="none"/></g></g><g class="mark-symbol role-mark marks" role="graphics-object" aria-roledescription="symbol mark container"><path aria-label="date: Nov 29, 2020; screenTime: 2" role="graphics-symbol" aria-roledescription="circle" transform="translate(0,218.1818181818182)" d="M3.872983346207417,0A3.872983346207417,3.872983346207417,0,1,1,-3.872983346207417,0A3.872983346207417,3.872983346207417,0,1,1,3.872983346207417,0" fill="#4c78a8" stroke-width="2" opacity="0.7"/><path aria-label="date: Nov 29, 2020; screenTime: 3" role="graphics-symbol" aria-roledescription="circle" transform="translate(28.952344325866104,81.81818181818181)" d="M3.872983346207417,0A3.872983346207417,3.872983346207417,0,1,1,-3.872983346207417,0A3.872983346207417,3.872983346207417,0,1,1,3.872983346207417,0" fill="#4c78a8" stroke-width="2" opacity="0.7"/><path aria-label="date: Nov 29, 2020; screenTime: 2" role="graphics-symbol" aria-roledescription="circle" transform="translate(28.96516360606352,218.1818181818182)" d="M3.872983346207417,0A3.872983346207417,3.872983346207417,0,1,1,-3.872983346207417,0A3.872983346207417,3.872983346207417,0,1,1,3.872983346207417,0" fill="#4c78a8" stroke-width="2" opacity="0.7"/><path aria-label="date: Nov 29, 2020; screenTime: 3" role="graphics-symbol" aria-roledescription="circle" transform="translate(29.144633528827356,81.81818181818181)" d="M3.872983346207417,0A3.872983346207417,3.872983346207417,0,1,1,-3.872983346207417,0A3.872983346207417,3.872983346207417,0,1,1,3.872983346207417,0" fill="#4c78a8" stroke-width="2" opacity="0.7"/><path aria-label="date: Nov 29, 2020; screenTime: 2" role="graphics-symbol" aria-roledescription="circle" transform="translate(41.143479793609586,218.1818181818182)" d="M3.872983346207417,0A3.872983346207417,3.872983346207417,0,1,1,-3.872983346207417,0A3.872983346207417,3.872983346207417,0,1,1,3.872983346207417,0" fill="#4c78a8" stroke-width="2" opacity="0.7"/><path aria-label="date: Nov 29, 2020; screenTime: 3" role="graphics-symbol" aria-roledescription="circle" transform="translate(41.162708713905715,81.81818181818181)" d="M3.872983346207417,0A3.872983346207417,3.872983346207417,0,1,1,-3.872983346207417,0A3.872983346207417,3.872983346207417,0,1,1,3.872983346207417,0" fill="#4c78a8" stroke-width="2" opacity="0.7"/><path aria-label="date: Nov 29, 2020; screenTime: 2" role="graphics-symbol" aria-roledescription="circle" transform="translate(46.11736051020735,218.1818181818182)" d="M3.872983346207417,0A3.872983346207417,3.872983346207417,0,1,1,-3.872983346207417,0A3.872983346207417,3.872983346207417,0,1,1,3.872983346207417,0" fill="#4c78a8" stroke-width="2" opacity="0.7"/><path aria-label="date: Nov 30, 2020; screenTime: 3" role="graphics-symbol" aria-roledescription="circle" transform="translate(84.17780341633816,81.81818181818181)" d="M3.872983346207417,0A3.872983346207417,3.872983346207417,0,1,1,-3.872983346207417,0A3.872983346207417,3.872983346207417,0,1,1,3.872983346207417,0" fill="#4c78a8" stroke-width="2" opacity="0.7"/><path aria-label="date: Nov 30, 2020; screenTime: 2" role="graphics-symbol" aria-roledescription="circle" transform="translate(98.84305996218312,218.1818181818182)" d="M3.872983346207417,0A3.872983346207417,3.872983346207417,0,1,1,-3.872983346207417,0A3.872983346207417,3.872983346207417,0,1,1,3.872983346207417,0" fill="#4c78a8" stroke-width="2" opacity="0.7"/><path aria-label="date: Nov 30, 2020; screenTime: 3" role="graphics-symbol" aria-roledescription="circle" transform="translate(284.03038169406784,81.81818181818181)" d="M3.872983346207417,0A3.872983346207417,3.872983346207417,0,1,1,-3.872983346207417,0A3.872983346207417,3.872983346207417,0,1,1,3.872983346207417,0" fill="#4c78a8" stroke-width="2" opacity="0.7"/><path aria-label="date: Nov 30, 2020; screenTime: 2" role="graphics-symbol" aria-roledescription="circle" transform="translate(284.049610614364,218.1818181818182)" d="M3.872983346207417,0A3.872983346207417,3.872983346207417,0,1,1,-3.872983346207417,0A3.872983346207417,3.872983346207417,0,1,1,3.872983346207417,0" fill="#4c78a8" stroke-width="2" opacity="0.7"/><path aria-label="date: Nov 30, 2020; screenTime: 3" role="graphics-symbol" aria-roledescription="circle" transform="translate(284.15216485594334,81.81818181818181)" d="M3.872983346207417,0A3.872983346207417,3.872983346207417,0,1,1,-3.872983346207417,0A3.872983346207417,3.872983346207417,0,1,1,3.872983346207417,0" fill="#4c78a8" stroke-width="2" opacity="0.7"/><path aria-label="date: Nov 30, 2020; screenTime: 2" role="graphics-symbol" aria-roledescription="circle" transform="translate(286.5750088132551,218.1818181818182)" d="M3.872983346207417,0A3.872983346207417,3.872983346207417,0,1,1,-3.872983346207417,0A3.872983346207417,3.872983346207417,0,1,1,3.872983346207417,0" fill="#4c78a8" stroke-width="2" opacity="0.7"/><path aria-label="date: Nov 30, 2020; screenTime: 3" role="graphics-symbol" aria-roledescription="circle" transform="translate(313.4634490273371,81.81818181818181)" d="M3.872983346207417,0A3.872983346207417,3.872983346207417,0,1,1,-3.872983346207417,0A3.872983346207417,3.872983346207417,0,1,1,3.872983346207417,0" fill="#4c78a8" stroke-width="2" opacity="0.7"/><path aria-label="date: Nov 30, 2020; screenTime: 2" role="graphics-symbol" aria-roledescription="circle" transform="translate(313.48908758773194,218.1818181818182)" d="M3.872983346207417,0A3.872983346207417,3.872983346207417,0,1,1,-3.872983346207417,0A3.872983346207417,3.872983346207417,0,1,1,3.872983346207417,0" fill="#4c78a8" stroke-width="2" opacity="0.7"/><path aria-label="date: Nov 30, 2020; screenTime: 3" role="graphics-symbol" aria-roledescription="circle" transform="translate(313.66855751049576,81.81818181818181)" d="M3.872983346207417,0A3.872983346207417,3.872983346207417,0,1,1,-3.872983346207417,0A3.872983346207417,3.872983346207417,0,1,1,3.872983346207417,0" fill="#4c78a8" stroke-width="2" opacity="0.7"/><path aria-label="date: Nov 30, 2020; screenTime: 2" role="graphics-symbol" aria-roledescription="circle" transform="translate(319.1487997948915,218.1818181818182)" d="M3.872983346207417,0A3.872983346207417,3.872983346207417,0,1,1,-3.872983346207417,0A3.872983346207417,3.872983346207417,0,1,1,3.872983346207417,0" fill="#4c78a8" stroke-width="2" opacity="0.7"/><path aria-label="date: Nov 30, 2020; screenTime: 3" role="graphics-symbol" aria-roledescription="circle" transform="translate(331.1925135403647,81.81818181818181)" d="M3.872983346207417,0A3.872983346207417,3.872983346207417,0,1,1,-3.872983346207417,0A3.872983346207417,3.872983346207417,0,1,1,3.872983346207417,0" fill="#4c78a8" stroke-width="2" opacity="0.7"/><path aria-label="date: Nov 30, 2020; screenTime: 2" role="graphics-symbol" aria-roledescription="circle" transform="translate(337.06374387078165,218.1818181818182)" d="M3.872983346207417,0A3.872983346207417,3.872983346207417,0,1,1,-3.872983346207417,0A3.872983346207417,3.872983346207417,0,1,1,3.872983346207417,0" fill="#4c78a8" stroke-width="2" opacity="0.7"/><path aria-label="date: Nov 30, 2020; screenTime: 3" role="graphics-symbol" aria-roledescription="circle" transform="translate(337.28167163413775,81.81818181818181)" d="M3.872983346207417,0A3.872983346207417,3.872983346207417,0,1,1,-3.872983346207417,0A3.872983346207417,3.872983346207417,0,1,1,3.872983346207417,0" fill="#4c78a8" stroke-width="2" opacity="0.7"/><path aria-label="date: Nov 30, 2020; screenTime: 2" role="graphics-symbol" aria-roledescription="circle" transform="translate(337.3457680351248,218.1818181818182)" d="M3.872983346207417,0A3.872983346207417,3.872983346207417,0,1,1,-3.872983346207417,0A3.872983346207417,3.872983346207417,0,1,1,3.872983346207417,0" fill="#4c78a8" stroke-width="2" opacity="0.7"/><path aria-label="date: Nov 30, 2020; screenTime: 3" role="graphics-symbol" aria-roledescription="circle" transform="translate(337.5444668781848,81.81818181818181)" d="M3.872983346207417,0A3.872983346207417,3.872983346207417,0,1,1,-3.872983346207417,0A3.872983346207417,3.872983346207417,0,1,1,3.872983346207417,0" fill="#4c78a8" stroke-width="2" opacity="0.7"/><path aria-label="date: Nov 30, 2020; screenTime: 2" role="graphics-symbol" aria-roledescription="circle" transform="translate(337.64702111976413,218.1818181818182)" d="M3.872983346207417,0A3.872983346207417,3.872983346207417,0,1,1,-3.872983346207417,0A3.872983346207417,3.872983346207417,0,1,1,3.872983346207417,0" fill="#4c78a8" stroke-width="2" opacity="0.7"/><path aria-label="date: Nov 30, 2020; screenTime: 3" role="graphics-symbol" aria-roledescription="circle" transform="translate(342.81319103932316,81.81818181818181)" d="M3.872983346207417,0A3.872983346207417,3.872983346207417,0,1,1,-3.872983346207417,0A3.872983346207417,3.872983346207417,0,1,1,3.872983346207417,0" fill="#4c78a8" stroke-width="2" opacity="0.7"/><path aria-label="date: Nov 30, 2020; screenTime: 2" role="graphics-symbol" aria-roledescription="circle" transform="translate(343.6400346120565,218.1818181818182)" d="M3.872983346207417,0A3.872983346207417,3.872983346207417,0,1,1,-3.872983346207417,0A3.872983346207417,3.872983346207417,0,1,1,3.872983346207417,0" fill="#4c78a8" stroke-width="2" opacity="0.7"/><path aria-label="date: Nov 30, 2020; screenTime: 3" role="graphics-symbol" aria-roledescription="circle" transform="translate(391.70592571227127,81.81818181818181)" d="M3.872983346207417,0A3.872983346207417,3.872983346207417,0,1,1,-3.872983346207417,0A3.872983346207417,3.872983346207417,0,1,1,3.872983346207417,0" fill="#4c78a8" stroke-width="2" opacity="0.7"/><path aria-label="date: Nov 30, 2020; screenTime: 2" role="graphics-symbol" aria-roledescription="circle" transform="translate(400,218.1818181818182)" d="M3.872983346207417,0A3.872983346207417,3.872983346207417,0,1,1,-3.872983346207417,0A3.872983346207417,3.872983346207417,0,1,1,3.872983346207417,0" fill="#4c78a8" stroke-width="2" opacity="0.7"/></g></g><path class="foreground" aria-hidden="true" d="" display="none"/></g></g></g></svg>