<svg xmlns="http://www.w3.org/2000/svg" xmlns:xlink="http://www.w3.org/1999/xlink" version="1.1" class="marks" width="451" height="480" viewBox="0 0 451 480"><rect width="451" height="480" fill="aliceblue"/><g fill="none" stroke-miterlimit="10" transform="translate(45,39)"><g class="mark-group role-frame root" role="graphics-object" aria-roledescription="group mark container"><g transform="translate(0,0)"><path class="background" aria-hidden="true" d="M0.5,0.5h400v400h-400Z" stroke="#ddd"/><g><g class="mark-group role-axis" aria-hidden="true"><g transform="translate(0.5,400.5)"><path class="background" aria-hidden="true" d="M0,0h0v0h0Z" pointer-events="none"/><g><g class="mark-rule role-axis-grid" pointer-events="none"><line transform="translate(0,-400)" x2="0" y2="400" stroke="#ddd" stroke-width="1" opacity="1"/><line transform="translate(40,-400)" x2="0" y2="400" stroke="#ddd" stroke-width="1" opacity="1"/><line transform="translate(80,-400)" x2="0" y2="400" stroke="#ddd" stroke-width="1" opacity="1"/><line transform="translate(120,-400)" x2="0" y2="400" stroke="#ddd" stroke-width="1" opacity="1"/><line transform="translate(160,-400)" x2="0" y2="400" stroke="#ddd" stroke-width="1" opacity="1"/><line transform="translate(200,-400)" x2="0" y2="400" stroke="#ddd" stroke-width="1" opacity="1"/><line transform="translate(240,-400)" x2="0" y2="400" stroke="#ddd" stroke-width="1" opacity="1"/><line transform="translate(280,-400)" x2="0" y2="400" stroke="#ddd" stroke-width="1" opacity="1"/><line transform="translate(320,-400)" x2="0" y2="400" stroke="#ddd" stroke-width="1" opacity="1"/><line transform="translate(360,-400)" x2="0" y2="400" stroke="#ddd" stroke-width="1" opacity="1"/><line transform="translate(400,-400)" x2="0" y2="400" stroke="#ddd" stroke-width="1" opacity="1"/></g></g><path class="foreground" aria-hidden="true" d="" pointer-events="none" display="none"/></g></g><g class="mark-group role-axis" aria-hidden="true"><g transform="translate(0.5,0.5)"><path class="background" aria-hidden="true" d="M0,0h0v0h0Z" pointer-events="none"/><g><g class="mark-rule role-axis-grid" pointer-events="none"><line transform="translate(0,400)" x2="400" y2="0" stroke="#ddd" stroke-width="1" opacity="1"/><line transform="translate(0,360)" x2="400" y2="0" stroke="#ddd" stroke-width="1" opacity="1"/><line transform="translate(0,320)" x2="400" y2="0" stroke="#ddd" stroke-width="1" opacity="1"/><line transform="translate(0,280)" x2="400" y2="0" stroke="#ddd" stroke-width="1" opacity="1"/><line transform="translate(0,240)" x2="400" y2="0" stroke="#ddd" stroke-width="1" opacity="1"/><line transform="translate(0,200)" x2="400" y2="0" stroke="#ddd" stroke-width="1" opacity="1"/><line transform="translate(0,160)" x2="400" y2="0" stroke="#ddd" stroke-width="1" opacity="1"/><line transform="translate(0,120)" x2="400" y2="0" stroke="#ddd" stroke-width="1" opacity="1"/><line transform="translate(0,80)" x2="400" y2="0" stroke="#ddd" stroke-width="1" opacity="1"/><line transform="translate(0,40)" x2="400" y2="0" stroke="#ddd" stroke-width="1" opacity="1"/><line transform="translate(0,0)" x2="400" y2="0" stroke="#ddd" stroke-width="1" opacity="1"/></g></g><path class="foreground" aria-hidden="true" d="" pointer-events="none" display="none"/></g></g><g class="mark-group role-axis" role="graphics-symbol" aria-roledescription="axis" aria-label="X-axis titled 'Negative ⇨ Positive' for a linear scale with values from −5 to 5"><g transform="translate(0.5,400.5)"><path class="background" aria-hidden="true" d="M0,0h0v0h0Z" pointer-events="none"/><g><g class="mark-rule role-axis-tick" pointer-events="none"><line transform="translate(0,0)" x2="0" y2="5" stroke="#888" stroke-width="1" opacity="1"/><line transform="translate(40,0)" x2="0" y2="5" stroke="#888" stroke-width="1" opacity="1"/><line transform="translate(80,0)" x2="0" y2="5" stroke="#888" stroke-width="1" opacity="1"/><line transform="translate(120,0)" x2="0" y2="5" stroke="#888" stroke-width="1" opacity="1"/><line transform="translate(160,0)" x2="0" y2="5" stroke="#888" stroke-width="1" opacity="1"/><line transform="translate(200,0)" x2="0" y2="5" stroke="#888" stroke-width="1" opacity="1"/><line transform="translate(240,0)" x2="0" y2="5" stroke="#888" stroke-width="1" opacity="1"/><line transform="translate(280,0)" x2="0" y2="5" stroke="#888" stroke-width="1" opacity="1"/><line transform="translate(320,0)" x2="0" y2="5" stroke="#888" stroke-width="1" opacity="1"/><line transform="translate(360,0)" x2="0" y2="5" stroke="#888" stroke-width="1" opacity="1"/><line transform="translate(400,0)" x2="0" y2="5" stroke="#888" stroke-width="1" opacity="1"/></g><g class="mark-text role-axis-label" pointer-events="none"><text text-anchor="start" transform="translate(0,15)" font-family="sans-serif" font-size="10px" fill="#000" opacity="1">−5</text><text text-anchor="middle" transform="translate(40,15)" font-family="sans-serif" font-size="10px" fill="#000" opacity="1">−4</text><text text-anchor="middle" transform="translate(80,15)" font-family="sans-serif" font-size="10px" fill="#000" opacity="1">−3</text><text text-anchor="middle" transform="translate(120,15)" font-family="sans-serif" font-size="10px" fill="#000" opacity="1">−2</text><text text-anchor="middle" transform="translate(160,15)" font-family="sans-serif" font-size="10px" fill="#000" opacity="1">−1</text><text text-anchor="middle" transform="translate(200,15)" font-family="sans-serif" font-size="10px" fill="#000" opacity="1">0</text><text text-anchor="middle" transform="translate(240,15)" font-family="sans-serif" font-size="10px" fill="#000" opacity="1">1</text><text text-anchor="middle" transform="translate(280,15)" font-family="sans-serif" font-size="10px" fill="#000" opacity="1">2</text><text text-anchor="middle" transform="translate(320,15)" font-family="sans-serif" font-size="10px" fill="#000" opacity="1">3</text><text text-anchor="middle" transform="translate(360,15)" font-family="sans-serif" font-size="10px" fill="#000" opacity="1">4</text><text text-anchor="end" transform="translate(400,15)" font-family="sans-serif" font-size="10px" fill="#000" opacity="1">5</text></g><g class="mark-rule role-axis-domain" pointer-events="none"><line transform="translate(0,0)" x2="400" y2="0" stroke="#888" stroke-width="1" opacity="1"/></g><g class="mark-text role-axis-title" pointer-events="none"><text text-anchor="middle" transform="translate(200,33)" font-family="sans-serif" font-size="15px" font-weight="bold" fill="#004B99" opacity="1">Negative ⇨ Positive</text></g></g><path class="foreground" aria-hidden="true" d="" pointer-events="none" display="none"/></g></g><g class="mark-group role-axis" role="graphics-symbol" aria-roledescription="axis" aria-label="Y-axis titled 'Sleepy ⇨ Alert' for a linear scale with values from −5 to 5"><g transform="translate(0.5,0.5)"><path class="background" aria-hidden="true" d="M0,0h0v0h0Z" pointer-events="none"/><g><g class="mark-rule role-axis-tick" pointer-events="none"><line transform="translate(0,400)" x2="-5" y2="0" stroke="#888" stroke-width="1" opacity="1"/><line transform="translate(0,360)" x2="-5" y2="0" stroke="#888" stroke-width="1" opacity="1"/><line transform="translate(0,320)" x2="-5" y2="0" stroke="#888" stroke-width="1" opacity="1"/><line transform="translate(0,280)" x2="-5" y2="0" stroke="#888" stroke-width="1" opacity="1"/><line transform="translate(0,240)" x2="-5" y2="0" stroke="#888" stroke-width="1" opacity="1"/><line transform="translate(0,200)" x2="-5" y2="0" stroke="#888" stroke-width="1" opacity="1"/><line transform="translate(0,160)" x2="-5" y2="0" stroke="#888" stroke-width="1" opacity="1"/><line transform="translate(0,120)" x2="-5" y2="0" stroke="#888" stroke-width="1" opacity="1"/><line transform="translate(0,80)" x2="-5" y2="0" stroke="#888" stroke-width="1" opacity="1"/><line transform="translate(0,40)" x2="-5" y2="0" stroke="#888" stroke-width="1" opacity="1"/><line transform="translate(0,0)" x2="-5" y2="0" stroke="#888" stroke-width="1" opacity="1"/></g><g class="mark-text role-axis-label" pointer-events="none"><text text-anchor="end" transform="translate(-7,403)" font-family="sans-serif" font-size="10px" fill="#000" opacity="1">−5</text><text text-anchor="end" transform="translate(-7,363)" font-family="sans-serif" font-size="10px" fill="#000" opacity="1">−4</text><text text-anchor="end" transform="translate(-7,323)" font-family="sans-serif" font-size="10px" fill="#000" opacity="1">−3</text><text text-anchor="end" transform="translate(-7,283)" font-family="sans-serif" font-size="10px" fill="#000" opacity="1">−2</text><text text-anchor="end" transform="translate(-7,243)" font-family="sans-serif" font-size="10px" fill="#000" opacity="1">−1</text><text text-anchor="end" transform="translate(-7,203)" font-family="sans-serif" font-size="10px" fill="#000" opacity="1">0</text><text text-anchor="end" transform="translate(-7,163)" font-family="sans-serif" font-size="10px" fill="#000" opacity="1">1</text><text text-anchor="end" transform="translate(-7,123.00000000000001)" font-family="sans-serif" font-size="10px" fill="#000" opacity="1">2</text><text text-anchor="end" transform="translate(-7,82.99999999999999)" font-family="sans-serif" font-size="10px" fill="#000" opacity="1">3</text><text text-anchor="end" transform="translate(-7,42.99999999999999)" font-family="sans-serif" font-size="10px" fill="#000" opacity="1">4</text><text text-anchor="end" transform="translate(-7,3)" font-family="sans-serif" font-size="10px" fill="#000" opacity="1">5</text></g><g class="mark-rule role-axis-domain" pointer-events="none"><line transform="translate(0,400)" x2="0" y2="-400" stroke="#888" stroke-width="1" opacity="1"/></g><g class="mark-text role-axis-title" pointer-events="none"><text text-anchor="middle" transform="translate(-25,200) rotate(-90) translate(0,-3)" font-family="sans-serif" font-size="15px" font-weight="bold" fill="#004B99" opacity="1">Sleepy ⇨ Alert</text></g></g><path class="foreground" aria-hidden="true" d="" pointer-events="none" display="none"/></g></g><g class="mark-symbol role-mark layer_0_marks" role="graphics-object" aria-roledescription="symbol mark container"><path aria-label="Negative ⇨ Positive: −0.687615197099; Sleepy ⇨ Alert: 2.08161157025" role="graphics-symbol" aria-roledescription="circle" transform="translate(172.49539211605924,116.73553719008262)" d="M3.872983346207417,0A3.872983346207417,3.872983346207417,0,1,1,-3.872983346207417,0A3.872983346207417,3.872983346207417,0,1,1,3.872983346207417,0" fill="#99004B" stroke-width="2" opacity="0.7"/><path aria-label="Negative ⇨ Positive: −0.652535822582; Sleepy ⇨ Alert: 0.896464646465" role="graphics-symbol" aria-roledescription="circle" transform="translate(173.89856709673583,164.14141414141415)" d="M3.872983346207417,0A3.872983346207417,3.872983346207417,0,1,1,-3.872983346207417,0A3.872983346207417,3.872983346207417,0,1,1,3.872983346207417,0" fill="#99004B" stroke-width="2" opacity="0.7"/><path aria-label="Negative ⇨ Positive: −0.968250193234; Sleepy ⇨ Alert: 1.57369146006" role="graphics-symbol" aria-roledescription="circle" transform="translate(161.2699922706463,137.05234159779613)" d="M3.872983346207417,0A3.872983346207417,3.872983346207417,0,1,1,-3.872983346207417,0A3.872983346207417,3.872983346207417,0,1,1,3.872983346207417,0" fill="#99004B" stroke-width="2" opacity="0.7"/><path aria-label="Negative ⇨ Positive: −1.28396456389; Sleepy ⇨ Alert: 1.47210743802" role="graphics-symbol" aria-roledescription="circle" transform="translate(148.64141744455677,141.11570247933884)" d="M3.872983346207417,0A3.872983346207417,3.872983346207417,0,1,1,-3.872983346207417,0A3.872983346207417,3.872983346207417,0,1,1,3.872983346207417,0" fill="#99004B" stroke-width="2" opacity="0.7"/><path aria-label="Negative ⇨ Positive: −1.14364706582; Sleepy ⇨ Alert: 1.09963269054" role="graphics-symbol" aria-roledescription="circle" transform="translate(154.25411736726323,156.01469237832873)" d="M3.872983346207417,0A3.872983346207417,3.872983346207417,0,1,1,-3.872983346207417,0A3.872983346207417,3.872983346207417,0,1,1,3.872983346207417,0" fill="#99004B" stroke-width="2" opacity="0.7"/><path aria-label="Negative ⇨ Positive: −1.35412331292; Sleepy ⇨ Alert: 1.53983011938" role="graphics-symbol" aria-roledescription="circle" transform="translate(145.83506748320355,138.406795224977)" d="M3.872983346207417,0A3.872983346207417,3.872983346207417,0,1,1,-3.872983346207417,0A3.872983346207417,3.872983346207417,0,1,1,3.872983346207417,0" fill="#99004B" stroke-width="2" opacity="0.7"/><path aria-label="Negative ⇨ Positive: −0.652535822582; Sleepy ⇨ Alert: 2.52180899908" role="graphics-symbol" aria-roledescription="circle" transform="translate(173.89856709673583,99.12764003673095)" d="M3.872983346207417,0A3.872983346207417,3.872983346207417,0,1,1,-3.872983346207417,0A3.872983346207417,3.872983346207417,0,1,1,3.872983346207417,0" fill="#99004B" stroke-width="2" opacity="0.7"/><path aria-label="Negative ⇨ Positive: −0.757773946132; Sleepy ⇨ Alert: 2.28477961433" role="graphics-symbol" aria-roledescription="circle" transform="translate(169.68904215470602,108.60881542699721)" d="M3.872983346207417,0A3.872983346207417,3.872983346207417,0,1,1,-3.872983346207417,0A3.872983346207417,3.872983346207417,0,1,1,3.872983346207417,0" fill="#99004B" stroke-width="2" opacity="0.7"/><path aria-label="Negative ⇨ Positive: 0.989073402932; Sleepy ⇨ Alert: 0.843253968254" role="graphics-symbol" aria-roledescription="circle" transform="translate(239.56293611727162,166.26984126984127)" d="M3.872983346207417,0A3.872983346207417,3.872983346207417,0,1,1,-3.872983346207417,0A3.872983346207417,3.872983346207417,0,1,1,3.872983346207417,0" fill="#99004B" stroke-width="2" opacity="0.7"/><path aria-label="Negative ⇨ Positive: 0.829501812084; Sleepy ⇨ Alert: 1.12050960735" role="graphics-symbol" aria-roledescription="circle" transform="translate(233.18007248336673,155.17961570593152)" d="M3.872983346207417,0A3.872983346207417,3.872983346207417,0,1,1,-3.872983346207417,0A3.872983346207417,3.872983346207417,0,1,1,3.872983346207417,0" fill="#99004B" stroke-width="2" opacity="0.7"/><path aria-label="Negative ⇨ Positive: 0.829501812084; Sleepy ⇨ Alert: 0.78164160401" role="graphics-symbol" aria-roledescription="circle" transform="translate(233.18007248336673,168.734335839599)" d="M3.872983346207417,0A3.872983346207417,3.872983346207417,0,1,1,-3.872983346207417,0A3.872983346207417,3.872983346207417,0,1,1,3.872983346207417,0" fill="#99004B" stroke-width="2" opacity="0.7"/><path aria-label="Negative ⇨ Positive: 0.318872721372; Sleepy ⇨ Alert: 0.93567251462" role="graphics-symbol" aria-roledescription="circle" transform="translate(212.75490885487102,162.5730994152047)" d="M3.872983346207417,0A3.872983346207417,3.872983346207417,0,1,1,-3.872983346207417,0A3.872983346207417,3.872983346207417,0,1,1,3.872983346207417,0" fill="#99004B" stroke-width="2" opacity="0.7"/><path aria-label="Negative ⇨ Positive: 0.893330448423; Sleepy ⇨ Alert: 1.52098997494" role="graphics-symbol" aria-roledescription="circle" transform="translate(235.73321793692864,139.16040100250626)" d="M3.872983346207417,0A3.872983346207417,3.872983346207417,0,1,1,-3.872983346207417,0A3.872983346207417,3.872983346207417,0,1,1,3.872983346207417,0" fill="#99004B" stroke-width="2" opacity="0.7"/><path aria-label="Negative ⇨ Positive: 0.989073402932; Sleepy ⇨ Alert: 1.55179615706" role="graphics-symbol" aria-roledescription="circle" transform="translate(239.56293611727162,137.92815371762742)" d="M3.872983346207417,0A3.872983346207417,3.872983346207417,0,1,1,-3.872983346207417,0A3.872983346207417,3.872983346207417,0,1,1,3.872983346207417,0" fill="#99004B" stroke-width="2" opacity="0.7"/><path aria-label="Negative ⇨ Positive: 1.0209877211; Sleepy ⇨ Alert: 1.73663324979" role="graphics-symbol" aria-roledescription="circle" transform="translate(240.8395088440526,130.53467000835423)" d="M3.872983346207417,0A3.872983346207417,3.872983346207417,0,1,1,-3.872983346207417,0A3.872983346207417,3.872983346207417,0,1,1,3.872983346207417,0" fill="#99004B" stroke-width="2" opacity="0.7"/><path aria-label="Negative ⇨ Positive: 0.542272948558; Sleepy ⇨ Alert: 1.21292815372" role="graphics-symbol" aria-roledescription="circle" transform="translate(221.6909179423379,151.4828738512949)" d="M3.872983346207417,0A3.872983346207417,3.872983346207417,0,1,1,-3.872983346207417,0A3.872983346207417,3.872983346207417,0,1,1,3.872983346207417,0" fill="#99004B" stroke-width="2" opacity="0.7"/><path aria-label="Negative ⇨ Positive: 0.542272948558; Sleepy ⇨ Alert: 1.21292815372" role="graphics-symbol" aria-roledescription="circle" transform="translate(221.6909179423379,151.4828738512949)" d="M3.872983346207417,0A3.872983346207417,3.872983346207417,0,1,1,-3.872983346207417,0A3.872983346207417,3.872983346207417,0,1,1,3.872983346207417,0" fill="#99004B" stroke-width="2" opacity="0.7"/><path aria-label="Negative ⇨ Positive: 1.05290203927; Sleepy ⇨ Alert: 2.01388888889" role="graphics-symbol" aria-roledescription="circle" transform="translate(242.1160815708336,119.44444444444441)" d="M3.872983346207417,0A3.872983346207417,3.872983346207417,0,1,1,-3.872983346207417,0A3.872983346207417,3.872983346207417,0,1,1,3.872983346207417,0" fill="#99004B" stroke-width="2" opacity="0.7"/><path aria-label="Negative ⇨ Positive: 0.829501812084; Sleepy ⇨ Alert: 1.52098997494" role="graphics-symbol" aria-roledescription="circle" transform="translate(233.18007248336673,139.16040100250626)" d="M3.872983346207417,0A3.872983346207417,3.872983346207417,0,1,1,-3.872983346207417,0A3.872983346207417,3.872983346207417,0,1,1,3.872983346207417,0" fill="#99004B" stroke-width="2" opacity="0.7"/><path aria-label="Negative ⇨ Positive: 0.797587493915; Sleepy ⇨ Alert: 1.27454051796" role="graphics-symbol" aria-roledescription="circle" transform="translate(231.90349975658572,149.01837928153716)" d="M3.872983346207417,0A3.872983346207417,3.872983346207417,0,1,1,-3.872983346207417,0A3.872983346207417,3.872983346207417,0,1,1,3.872983346207417,0" fill="#99004B" stroke-width="2" opacity="0.7"/><path aria-label="Negative ⇨ Positive: 1.14864499378; Sleepy ⇨ Alert: 1.45937761069" role="graphics-symbol" aria-roledescription="circle" transform="translate(245.9457997511765,141.624895572264)" d="M3.872983346207417,0A3.872983346207417,3.872983346207417,0,1,1,-3.872983346207417,0A3.872983346207417,3.872983346207417,0,1,1,3.872983346207417,0" fill="#99004B" stroke-width="2" opacity="0.7"/><path aria-label="Negative ⇨ Positive: 0.861416130254; Sleepy ⇨ Alert: 1.98308270677" role="graphics-symbol" aria-roledescription="circle" transform="translate(234.4566452101477,120.6766917293233)" d="M3.872983346207417,0A3.872983346207417,3.872983346207417,0,1,1,-3.872983346207417,0A3.872983346207417,3.872983346207417,0,1,1,3.872983346207417,0" fill="#99004B" stroke-width="2" opacity="0.7"/><path aria-label="Negative ⇨ Positive: 1.69118840266; Sleepy ⇨ Alert: 1.05889724311" role="graphics-symbol" aria-roledescription="circle" transform="translate(267.6475361064532,157.64411027568923)" d="M3.872983346207417,0A3.872983346207417,3.872983346207417,0,1,1,-3.872983346207417,0A3.872983346207417,3.872983346207417,0,1,1,3.872983346207417,0" fill="#99004B" stroke-width="2" opacity="0.7"/><path aria-label="Negative ⇨ Positive: 1.43587385731; Sleepy ⇨ Alert: 2.59920634921" role="graphics-symbol" aria-roledescription="circle" transform="translate(257.4349542922053,96.031746031746)" d="M3.872983346207417,0A3.872983346207417,3.872983346207417,0,1,1,-3.872983346207417,0A3.872983346207417,3.872983346207417,0,1,1,3.872983346207417,0" fill="#99004B" stroke-width="2" opacity="0.7"/><path aria-label="Negative ⇨ Positive: 1.43587385731; Sleepy ⇨ Alert: 2.59920634921" role="graphics-symbol" aria-roledescription="circle" transform="translate(257.4349542922053,96.031746031746)" d="M3.872983346207417,0A3.872983346207417,3.872983346207417,0,1,1,-3.872983346207417,0A3.872983346207417,3.872983346207417,0,1,1,3.872983346207417,0" fill="#99004B" stroke-width="2" opacity="0.7"/><path aria-label="Negative ⇨ Positive: 0.701844539406; Sleepy ⇨ Alert: 1.6134085213" role="graphics-symbol" aria-roledescription="circle" transform="translate(228.07378157624277,135.4636591478697)" d="M3.872983346207417,0A3.872983346207417,3.872983346207417,0,1,1,-3.872983346207417,0A3.872983346207417,3.872983346207417,0,1,1,3.872983346207417,0" fill="#99004B" stroke-width="2" opacity="0.7"/><path aria-label="Negative ⇨ Positive: 2.45713203873; Sleepy ⇨ Alert: 2.04469507101" role="graphics-symbol" aria-roledescription="circle" transform="translate(298.2852815491968,118.21219715956559)" d="M3.872983346207417,0A3.872983346207417,3.872983346207417,0,1,1,-3.872983346207417,0A3.872983346207417,3.872983346207417,0,1,1,3.872983346207417,0" fill="#99004B" stroke-width="2" opacity="0.7"/></g><g class="mark-text role-mark layer_1_marks" role="graphics-object" aria-roledescription="text mark container"><text text-anchor="start" transform="translate(20,26)" font-family="sans-serif" font-size="20px" fill="#4B9900" opacity="0.5">Stress</text></g><g class="mark-text role-mark layer_2_marks" role="graphics-object" aria-roledescription="text mark container"><text text-anchor="end" transform="translate(380,26)" font-family="sans-serif" font-size="20px" fill="#4B9900" opacity="0.5">Excitement</text></g><g class="mark-text role-mark layer_3_marks" role="graphics-object" aria-roledescription="text mark container"><text text-anchor="start" transform="translate(20,386)" font-family="sans-serif" font-size="20px" fill="#4B9900" opacity="0.5">Depressed</text></g><g class="mark-text role-mark layer_4_marks" role="graphics-object" aria-roledescription="text mark container"><text text-anchor="end" transform="translate(380,386)" font-family="sans-serif" font-size="20px" fill="#4B9900" opacity="0.5">Relaxed</text></g><g class="mark-rule role-mark layer_5_marks" role="graphics-object" aria-roledescription="rule mark container"><line aria-label="x: 0" role="graphics-symbol" aria-roledescription="rule mark" transform="translate(200,0)" x2="0" y2="400" stroke="black" stroke-width="1"/></g><g class="mark-rule role-mark layer_6_marks" role="graphics-object" aria-roledescription="rule mark container"><line aria-label="y: 0" role="graphics-symbol" aria-roledescription="rule mark" transform="translate(400,200)" x2="-400" y2="0" stroke="black" stroke-width="1"/></g><g class="mark-rule role-mark layer_7_marks" role="graphics-object" aria-roledescription="rule mark container"><line aria-label="x: 5" role="graphics-symbol" aria-roledescription="rule mark" transform="translate(400,0)" x2="0" y2="400" stroke="black" stroke-width="0.5"/></g><g class="mark-rule role-mark layer_8_marks" role="graphics-object" aria-roledescription="rule mark container"><line aria-label="y: 5" role="graphics-symbol" aria-roledescription="rule mark" transform="translate(400,0)" x2="-400" y2="0" stroke="black" stroke-width="0.5"/></g><g class="mark-group role-title"><g transform="translate(200,-34)"><path class="background" aria-hidden="true" d="M0,0h0v0h0Z" pointer-events="none"/><g><g class="mark-text role-title-text" role="graphics-symbol" aria-roledescription="title" aria-label="Title text 'Mood this month'" pointer-events="none"><text text-anchor="middle" transform="translate(0,20)" font-family="sans-serif" font-size="25px" font-weight="bold" fill="#004B99" opacity="1">Mood this month</text></g></g><path class="foreground" aria-hidden="true" d="" pointer-events="none" display="none"/></g></g></g><path class="foreground" aria-hidden="true" d="" display="none"/></g></g></g></svg>