<?xml version="1.0" encoding="utf-8"?>
<!-- Svg Vector Icons : http://www.onlinewebfonts.com/icon -->
<!DOCTYPE svg PUBLIC "-//W3C//DTD SVG 1.1//EN" "http://www.w3.org/Graphics/SVG/1.1/DTD/svg11.dtd">
<svg version="1.1" xmlns="http://www.w3.org/2000/svg" xmlns:xlink="http://www.w3.org/1999/xlink" x="0px" y="0px" viewBox="0 0 1000 1000" enable-background="new 0 0 1000 1000" xml:space="preserve">
<metadata> Svg Vector Icons : http://www.onlinewebfonts.com/icon </metadata>
<g><g transform="translate(0.000000,512.000000) scale(0.100000,-0.100000)"><path d="M5173.3,5009c-411.9-134.1-705-601.5-756.7-1208.8l-13.4-162.8l-93.9-44.1c-57.5-26.8-145.6-101.5-237.5-197.3l-143.7-155.2l-139.8,82.4c-199.2,116.9-588.1,381.2-952.1,647.5c-404.2,296.9-517.2,354.4-687.8,354.4c-103.4,0-145.6-9.6-229.9-55.6c-113-63.2-220.3-187.7-252.9-296.9c-21.1-69-24.9-72.8-128.3-84.3c-212.7-24.9-354.4-126.5-442.5-318c-38.3-84.3-49.8-141.8-55.5-296.9c-7.7-168.6-1.9-210.7,42.1-339.1l49.8-149.4l-46-67.1c-180.1-264.4-149.4-616.9,86.2-963.6l93.9-139.8l-26.8-95.8C1089,1014.7,1351.4,526.2,2018.1,76c91.9-63.2,166.7-128.4,166.7-143.7c0-17.2-17.3-155.2-36.4-308.4c-21.1-153.3-47.9-415.7-59.4-584.3c-13.4-178.2-32.6-310.4-44.1-314.2c-32.6-11.5-120.7-101.5-743.3-768.2c-860.2-919.6-783.5-829.5-783.5-913.8c0-40.2,13.4-93.9,30.6-116.8c15.3-23,651.3-415.7,1411.9-869.7c996.2-595.8,1402.3-829.5,1452.1-835.2c55.6-5.8,82.4,3.8,130.3,47.9c38.3,34.5,216.5,352.5,519.2,931c371.6,708.8,459.8,890.8,459.8,952.1c0,40.2-7.7,80.5-19.2,86.2c-82.4,51.7,164.7,308.4,591.9,613c415.7,296.9,655.2,490.4,762.5,618.8c49.8,59.4,92,111.1,93.9,115c1.9,3.8,80.5-21.1,172.4-53.6c116.9-40.2,185.8-76.6,218.4-113c26.8-30.7,327.6-251,670.5-488.5c561.3-388.9,630.3-433,699.2-433c42.2,0,95.8,15.3,118.8,34.5c23,17.3,404.2,716.5,848.7,1549.8c628.3,1185.8,804.6,1534.5,804.6,1588.1c0,49.8-15.3,82.4-51.7,120.7c-30.6,28.7-348.7,205-710.7,392.7c-567.1,295-664.8,339.1-716.5,329.5c-34.5-5.8-76.6-26.8-95.8-44.1c-30.6-28.7-47.9-24.9-229.9,32.6c-369.7,114.9-689.7,300.8-954,549.8c-159,149.4-337.2,392.7-394.6,542.2c-17.2,47.9-44.1,99.6-59.4,116.9c-15.3,19.2-30.6,90-34.5,170.5c-5.7,97.7-24.9,170.5-59.4,247.1c-47.9,99.6-49.8,122.6-47.9,356.3c13.4,835.3-333.3,1507.7-789.3,1534.5C5274.8,5022.4,5200.1,5018.5,5173.3,5009z M5431.9,4522.4c69-70.9,116.8-145.6,157.1-243.3c61.3-145.6,134.1-452.1,113-473.2c-5.7-7.7-26.8,1.9-44.1,17.3c-67.1,59.4-235.6,130.3-337.2,141.8c-134.1,15.3-289.3-28.7-404.2-116.9c-103.4-78.5-107.3-70.9-57.5,149.4c40.2,183.9,143.7,390.8,243.3,488.5c76.6,74.7,174.3,137.9,212.6,137.9C5326.5,4623.9,5378.3,4577.9,5431.9,4522.4z M2370.6,3800.1c91.9-65.1,308.4-218.4,478.9-341c170.5-122.6,415.7-291.2,547.9-373.6l235.6-151.3l-113-114.9c-249-254.8-500-651.3-777.8-1226.1c-201.2-417.6-327.6-726-394.6-973.2c-28.7-99.6-53.6-193.5-59.4-206.9c-11.5-38.3-216.5,111.1-390.8,283.5c-172.4,172.4-266.3,335.2-281.6,494.3c-9.6,92-7.7,105.4,15.3,88.1c15.3-11.5,88.1-69,160.9-128.4c74.7-57.5,157.1-111.1,183.9-118.8c72.8-17.2,182,34.5,216.5,103.5c69,132.2,34.5,195.4-228,404.2c-392.7,312.3-584.3,567.1-584.3,774c1.9,53.6,11.5,116.8,24.9,139.8c23,42.1,34.5,36.4,425.3-252.9c231.8-168.6,427.2-300.8,461.7-308.4c78.6-15.3,170.5,32.6,208.8,107.3c76.6,147.5,42.2,189.7-429.1,532.6c-526.8,381.2-569,419.6-607.3,555.6c-38.3,126.5-26.8,296.9,23,350.6c46,51.7,166.7,47.9,243.3-5.8c34.5-23,172.4-128.3,306.5-231.8c136-105.4,371.7-279.7,524.9-388.9c247.1-178.2,285.4-199.2,358.2-199.2c61.3,0,95.8,11.5,132.2,46c109.2,101.5,88.1,235.6-51.7,337.2c-51.7,36.4-295,216.5-538.3,398.5c-433,323.8-446.4,335.2-431,387C2081.3,3955.3,2138.8,3957.2,2370.6,3800.1z M5317,3551.1c34.5,0,162.8-111.1,162.8-141.8c0-11.5-59.4-157.1-132.2-321.9c-164.7-369.7-352.5-860.2-467.4-1212.6c-103.5-318-205-710.7-205-795c0-136,105.4-228,235.6-203.1c109.2,21.1,139.8,74.7,214.6,373.6c82.4,327.6,268.2,879.3,438.7,1300.8c160.9,396.6,199.2,475.1,226.1,448.3c49.8-49.8,38.3-224.1-49.8-655.2c-170.5-846.8-377.4-2034.5-365.9-2090c7.7-30.7,38.3-76.6,70.9-103.5c109.2-91.9,252.9-47.9,329.5,101.5c115,226.1,354.4,498.1,500,567.1c114.9,55.5,277.8,30.6,277.8-42.2c0-57.5-90-228-249-473.2c-107.3-166.7-180.1-304.6-241.4-463.6c-425.3-1113-400.4-1078.6-1214.6-1662.8c-293.1-212.6-590-477-683.9-611.1l-38.3-55.6l-829.5,523l-827.6,523l13.4,231.8c30.6,570.9,111.1,1147.5,222.2,1592c67.1,266.3,201.2,618.8,373.6,982.8c122.6,256.7,352.5,680.1,365.9,668.6c3.8-3.8-15.3-101.5-40.2-216.5c-101.5-452.1-134.1-839.1-80.5-944.4c59.4-113,212.7-130.3,306.5-34.5c59.4,59.4,63.2,69,74.7,252.9c34.5,511.5,277.8,1419.6,475.1,1764.4c124.5,214.5,329.5,429.1,373.6,387c3.8-3.8-74.7-243.3-174.3-530.6c-264.4-766.3-438.7-1323.8-438.7-1406.2c0-53.6,13.4-84.3,59.4-130.3c120.7-122.6,302.7-57.5,348.6,124.5c69,274,605.4,1848.7,701.2,2055.6c65.1,139.8,159,229.9,216.5,206.9C5280.5,3554.9,5303.6,3551.1,5317,3551.1z M6370.6,1828.9c287.4-298.9,687.8-551.7,1101.5-693.5c99.6-34.5,185.8-65.1,189.7-67.1c5.7-5.7-1180.1-2170.5-1206.9-2199.3c-7.7-9.6-76.6,5.8-157.1,36.4l-143.7,51.7l40.2,88.1c21.1,49.8,101.5,258.6,180.1,463.6c120.7,318,162.8,406.1,295,605.4c210.7,323.8,270.1,457.8,281.6,643.7c7.7,122.6,1.9,160.9-32.6,231.8c-80.4,168.6-274,270.1-509.6,270.1c-159,0-293.1-44.1-433-141.8c-30.6-23-55.5-36.4-55.5-30.6c0,15.3,174.3,936.8,185.8,988.5l11.5,46l49.8-65.1C6194.4,2020.4,6286.3,1917,6370.6,1828.9z M8575.6,798.2L9002.8,576l-40.2-78.5c-78.5-157.1-1266.3-2398.5-1297-2448.3l-32.6-53.6l-410,287.4c-224.2,157.1-417.6,295-427.2,304.6c-19.2,19.2,1304.6,2434.9,1333.3,2434.9C8140.8,1022.3,8340,922.7,8575.6,798.2z M3081.3-2312.9c501.9-316.1,925.3-588.1,940.6-601.6c23-21.1-24.9-124.5-312.3-674.3c-185.8-356.3-344.8-659-354.4-674.3c-13.4-19.2-279.7,132.2-1134.1,639.9c-614.9,365.9-1130.3,678.2-1145.6,691.6c-21.1,19.2,65.1,120.7,524.9,609.2c302.7,321.8,553.6,586.2,559.4,586.2C2163.7-1736.3,2577.5-1995,3081.3-2312.9z"/></g></g>
</svg>