<?xml version="1.0" encoding="UTF-8" standalone="no" ?>
<!DOCTYPE svg PUBLIC "-//W3C//DTD SVG 1.1//EN" "http://www.w3.org/Graphics/SVG/1.1/DTD/svg11.dtd">
<svg xmlns="http://www.w3.org/2000/svg" xmlns:xlink="http://www.w3.org/1999/xlink" version="1.1" width="350" height="350" viewBox="0 0 350 350" xml:space="preserve">
<desc>Created with Fabric.js 1.7.22</desc>
<defs>
</defs>
<g id="icon" style="stroke: none; stroke-width: 1; stroke-dasharray: none; stroke-linecap: butt; stroke-linejoin: miter; stroke-miterlimit: 10; fill: none; fill-rule: nonzero; opacity: 1;" transform="translate(-1.9444444444444287 -1.9444444444444287) scale(3.89 3.89)" >
	<path d="M 77.403 0 H 12.597 C 5.651 0 0 5.651 0 12.597 v 64.807 C 0 84.35 5.651 90 12.597 90 h 64.807 C 84.35 90 90 84.35 90 77.403 V 12.597 C 90 5.651 84.35 0 77.403 0 z M 75.659 33.765 L 53.632 55.444 c -0.816 0.804 -1.933 1.223 -3.083 1.14 c -1.144 -0.079 -2.198 -0.646 -2.896 -1.556 l -8.898 -11.598 L 19.952 61.937 c -0.779 0.767 -1.792 1.149 -2.806 1.149 c -1.034 0 -2.068 -0.398 -2.851 -1.194 c -1.55 -1.574 -1.53 -4.106 0.045 -5.656 l 22.027 -21.68 c 0.817 -0.805 1.945 -1.217 3.083 -1.14 c 1.144 0.08 2.198 0.646 2.896 1.555 l 8.898 11.599 l 18.803 -18.506 c 1.574 -1.55 4.108 -1.53 5.656 0.045 C 77.254 29.683 77.233 32.215 75.659 33.765 z" style="stroke: none; stroke-width: 1; stroke-dasharray: none; stroke-linecap: butt; stroke-linejoin: miter; stroke-miterlimit: 10; fill: rgb(0,84,134); fill-rule: nonzero; opacity: 1;" transform=" matrix(1 0 0 1 0 0) " stroke-linecap="round" />
</g>
</svg>