<?xml version="1.0" encoding="utf-8"?>
<!-- Svg Vector Icons : http://www.onlinewebfonts.com/icon -->
<!DOCTYPE svg PUBLIC "-//W3C//DTD SVG 1.1//EN" "http://www.w3.org/Graphics/SVG/1.1/DTD/svg11.dtd">
<svg version="1.1" xmlns="http://www.w3.org/2000/svg" xmlns:xlink="http://www.w3.org/1999/xlink" x="0px" y="0px" viewBox="0 0 1000 1000" enable-background="new 0 0 1000 1000" xml:space="preserve">
<metadata> Svg Vector Icons : http://www.onlinewebfonts.com/icon </metadata>
<g><g transform="translate(0.000000,511.000000) scale(0.100000,-0.100000)"><path d="M3498.9,3083.3c-61.4-8.8-133.7-35.1-164.4-59.2c-98.6-72.3-103-157.8-28.5-532.7c87.7-440.6,127.1-749.7,96.5-760.7c-13.2-4.4-133.7-72.3-267.4-153.5c-212.6-125-431.9-282.8-815.5-578.7c-114-87.7-278.4-133.7-394.6-111.8c-107.4,19.7-181.9,61.4-405.5,230.2c-434,324.4-881.2,570-1122.4,613.8c-166.6,30.7-243.3-2.2-282.8-125c-24.1-76.7-21.9-118.4,39.5-405.5C261.2,682.9,287.5,468.1,300.6-16.4c13.1-530.5-17.6-868.1-127.2-1409.5C96.7-1803,99-1884.1,197.6-1982.7c50.4-48.2,81.1-61.4,162.2-61.4c228,0,670.8,236.7,1196.9,635.7c223.6,171,289.4,201.7,436.2,201.7c151.3,0,223.6-26.3,366.1-138.1c61.4-46,129.3-85.5,153.4-85.5c83.3,0,438.4,173.2,701.5,342c63.6,39.5,63.6,39.5,30.7-2.2c-17.5-24.1-111.8-138.1-208.3-252.1c-458.2-539.2-513-631.3-515.2-835.2c0-287.2,236.7-528.3,657.6-666.4c175.4-59.2,423.1-54.8,545.8,8.8c125,65.8,179.8,127.1,287.2,322.2c48.2,89.9,98.6,162.2,109.6,162.2c11,0,107.4-24.1,210.4-54.8c1264.9-366.1,2621.8-184.1,3794.6,510.8c602.8,357.3,1126.7,817.7,1613.4,1422.7c228,280.6,219.2,370.5-70.2,723.4c-677.4,826.4-1543.2,1444.6-2470.5,1766.9c-383.6,133.7-1012.8,256.5-1306.5,256.5c-70.2,0-122.8,24.1-256.5,111.8c-333.2,223.6-966.7,499.8-1427.1,620.4c-173.2,46-548,107.4-591.9,98.6C3610.7,3103,3558.1,3094.2,3498.9,3083.3z M6098.8,658.8c-50.4-258.7-48.2-949.2,2.2-1185.9c74.5-337.6,192.9-640.1,359.5-920.7c52.6-89.9,89.9-168.8,85.5-175.4c-6.6-4.4-63.6,17.5-127.1,50.4c-357.3,186.3-600.6,464.7-710.3,817.7c-114,363.9-28.5,898.8,210.5,1302.1c76.7,127.1,188.5,280.6,206.1,280.6C6129.5,827.6,6116.3,750.8,6098.8,658.8z M8041,639c179.8-74.5,295.9-252.1,295.9-447.2c0-374.8-396.8-602.8-723.4-416.5C7451.4-132.6,7376.8,1.1,7376.8,194c0,122.8,11,160,65.8,249.9C7563.2,641.2,7830.6,728.9,8041,639z"/></g></g>
</svg>