<?xml version="1.0" encoding="utf-8"?>
<!-- Svg Vector Icons : http://www.onlinewebfonts.com/icon -->
<!DOCTYPE svg PUBLIC "-//W3C//DTD SVG 1.1//EN" "http://www.w3.org/Graphics/SVG/1.1/DTD/svg11.dtd">
<svg version="1.1" xmlns="http://www.w3.org/2000/svg" xmlns:xlink="http://www.w3.org/1999/xlink" x="0px" y="0px" viewBox="0 0 1000 1000" enable-background="new 0 0 1000 1000" xml:space="preserve">
<metadata> Svg Vector Icons : http://www.onlinewebfonts.com/icon </metadata>
<g><path d="M500,10C229.4,10,10,229.4,10,500s219.4,490,490,490s490-219.4,490-490S770.6,10,500,10z M683.8,255c33.8,0,61.3,41.1,61.3,91.9s-27.4,91.9-61.3,91.9s-61.3-41.1-61.3-91.9S649.9,255,683.8,255z M316.3,255c33.8,0,61.3,41.1,61.3,91.9s-27.4,91.9-61.3,91.9S255,397.6,255,346.9S282.4,255,316.3,255z M500,867.5c-159.7,0-292.3-133.9-306.3-304.6c89.7,51.8,195.3,81.4,306.3,81.4s216.5-29.5,306.3-81.3C792.3,733.8,659.7,867.5,500,867.5L500,867.5z"/></g>
</svg>