<?xml version="1.0" encoding="iso-8859-1"?>
<!-- Uploaded to: SVG Repo, www.svgrepo.com, Generator: SVG Repo Mixer Tools -->
<svg fill="#000000" version="1.1" id="Capa_1" xmlns="http://www.w3.org/2000/svg" xmlns:xlink="http://www.w3.org/1999/xlink" 
	 viewBox="0 0 490.1 490.1" xml:space="preserve">
<g>
	<g>
		<g>
			<path d="M245,214.3L245,214.3c-9.9,0-17.9,8-17.9,17.9v23.7h-23.3c-9.9,0-17.9,8-17.9,17.9l0,0c0,9.9,8,17.9,17.9,17.9h23.3V315
				c0,9.9,8,17.9,17.9,17.9l0,0c9.9,0,17.9-8,17.9-17.9v-23.3h23.3c9.9,0,17.9-8,17.9-17.9l0,0c0-9.9-8-17.9-17.9-17.9h-23.3v-23.7
				C262.9,222.3,254.9,214.3,245,214.3z"/>
			<rect x="176.2" width="137.7" height="45.5"/>
			<path d="M369.4,126.8l-55.6-61.4H176.2l-55.6,61.4c-2.7,3.5-4.3,7.4-4.3,12.1V471c0,10.5,8.6,19.1,19.1,19.1h219.3
				c10.5,0,19.1-8.6,19.1-19.1V138.8C373.7,134.6,372.2,130.3,369.4,126.8z M245,385.4c-45.1,0-82.1-49.8-82.1-111.6
				c0-61.4,36.6-111.6,82.1-111.6c45.1,0,82.1,49.8,82.1,111.6C327.1,335.2,290.1,385.4,245,385.4z"/>
		</g>
	</g>
</g>
</svg>