<?xml version="1.0" encoding="iso-8859-1"?>
<!-- Generator: Adobe Illustrator 19.0.0, SVG Export Plug-In . SVG Version: 6.00 Build 0)  -->
<svg version="1.1" id="Layer_1" xmlns="http://www.w3.org/2000/svg" xmlns:xlink="http://www.w3.org/1999/xlink" x="0px" y="0px"
	 viewBox="0 0 512 512" style="enable-background:new 0 0 512 512;" xml:space="preserve">
<g>
	<g>
		<path d="M210.16,276.71c-0.211,0.105-21.58,10.51-41.574,10.51c-20.07,0-41.4-10.425-41.613-10.53l-16.715,33.527
			c1.181,0.592,29.265,14.466,58.328,14.466s57.147-13.874,58.328-14.466L210.16,276.71z"/>
	</g>
</g>
<g>
	<g>
		<path d="M384.989,276.71c-0.21,0.105-21.58,10.51-41.574,10.51c-20.07,0-41.4-10.425-41.613-10.53l-16.715,33.527
			c1.181,0.592,29.265,14.466,58.328,14.466c29.063,0,57.147-13.874,58.328-14.466L384.989,276.71z"/>
	</g>
</g>
<g>
	<g>
		<path d="M256,374.634c-13.772,0-24.976,11.204-24.976,24.976c0,13.772,11.204,24.976,24.976,24.976
			c13.767,0,24.971-11.202,24.976-24.976C280.976,385.838,269.774,374.634,256,374.634z"/>
	</g>
</g>
<g>
	<g>
		<polygon points="287.976,144.369 274.732,112.393 193.561,112.393 193.561,149.856 229.51,149.856 186.56,192.805 
			199.805,224.783 280.976,224.783 280.976,187.32 245.027,187.32 		"/>
	</g>
</g>
<g>
	<g>
		<polygon points="394.123,119.391 380.878,87.415 299.707,87.415 299.707,124.878 335.656,124.878 292.707,167.829 
			305.951,199.805 387.122,199.805 387.122,162.341 351.173,162.341 		"/>
	</g>
</g>
<g>
	<g>
		<polygon points="500.269,94.415 487.024,62.439 405.854,62.439 405.854,99.902 441.802,99.902 398.853,142.853 412.098,174.829 
			493.268,174.829 493.268,137.366 457.32,137.366 		"/>
	</g>
</g>
<g>
	<g>
		<path d="M508.251,212.293h-38.109c2.878,14.128,4.394,28.744,4.394,43.707c0,120.501-98.036,218.537-218.537,218.537
			S37.463,376.501,37.463,256S135.499,37.463,256,37.463c25.519,0,50.025,4.412,72.811,12.488h39.579v-23.92
			C334.442,9.372,296.297,0,256,0C114.84,0,0,114.842,0,256s114.84,256,256,256s256-114.842,256-256
			C512,241.101,510.706,226.5,508.251,212.293z"/>
	</g>
</g>
<g>
</g>
<g>
</g>
<g>
</g>
<g>
</g>
<g>
</g>
<g>
</g>
<g>
</g>
<g>
</g>
<g>
</g>
<g>
</g>
<g>
</g>
<g>
</g>
<g>
</g>
<g>
</g>
<g>
</g>
</svg>
