<?xml version="1.0" encoding="utf-8"?>
<!-- Svg Vector Icons : http://www.onlinewebfonts.com/icon -->
<!DOCTYPE svg PUBLIC "-//W3C//DTD SVG 1.1//EN" "http://www.w3.org/Graphics/SVG/1.1/DTD/svg11.dtd">
<svg version="1.1" xmlns="http://www.w3.org/2000/svg" xmlns:xlink="http://www.w3.org/1999/xlink" x="0px" y="0px" viewBox="0 0 1000 1000" enable-background="new 0 0 1000 1000" xml:space="preserve">
<metadata> Svg Vector Icons : http://www.onlinewebfonts.com/icon </metadata>
<g><path d="M745,360H360V185c0-19.3,15.7-35,35-35h210c19.3,0,35,15.7,35,35h140c0-96.5-78.5-175-175-175H395c-96.5,0-175,78.5-175,175v181c-40.8,14.4-70,53.3-70,99v420c0,58,47,105,105,105h490c58,0,105-47,105-105V465C850,407,803,360,745,360z M552.5,651.3v111.2c0,29-23.5,52.5-52.5,52.5s-52.5-23.5-52.5-52.5V651.3C436.6,638.9,430,622.7,430,605c0-38.7,31.3-70,70-70c38.7,0,70,31.3,70,70C570,622.7,563.4,638.9,552.5,651.3z"/></g>
</svg>